# File created by Blade
# Date/Time:  Wed Jan 21 16:33:30 2015
# Frame Rate: 120.000 fps
#------------------------------------------------------
:FULLY-SPECIFIED
:DEGREES
469
root 24.946536 4.811153 -25.456652 -40.380223 103.395318 69.949616
Spine 31.897545 3.458237 -2.473701
Head 28.402102 -13.030696 1.623279
LeftShoulder 6.125519 -27.540241 -1.197569
LeftArm 7.998681 -31.929634 -69.340893
LeftForeArm -3.858492 -0.000000 140.766385
LeftHand -4.228772 -0.000000 58.956636
LeftHandThumb1 -26.253704 0.000000 33.147579
RightShoulder -4.950348 -6.944821 11.210919
RightArm 49.507776 36.063681 97.913947
RightForeArm -58.615742 0.000000 146.672722
RightHand -9.731804 -0.000000 -52.546396
RightHandThumb1 -24.326973 -0.000000 -32.862282
LeftUpLeg -33.021110 -2.734664 -7.135193
LeftLeg 122.061207 -0.000000 -0.000000
LeftFoot 6.114135 28.129933 2.986473
LeftToeBase 22.386943 -0.000000 -0.000000
RightUpLeg -30.161343 -4.288215 -2.489270
RightLeg 128.800785 -0.000000 -0.000000
RightFoot -1.047887 -25.254217 5.719908
RightToeBase 23.031828 -0.000000 -0.000000
470
root 24.931356 4.808683 -25.470259 -40.305553 103.446205 69.864635
Spine 31.325898 3.311145 -2.601722
Head 27.917764 -12.871743 1.493161
LeftShoulder 6.055243 -27.682401 -1.050897
LeftArm 8.205327 -34.093273 -69.384392
LeftForeArm -4.023862 -0.000000 141.239474
LeftHand -4.637904 -0.000000 60.243500
LeftHandThumb1 -26.253704 0.000000 33.147579
RightShoulder -4.969802 -6.571289 11.153435
RightArm 50.590179 36.897393 99.081853
RightForeArm -58.825631 -0.000000 147.244277
RightHand -9.844089 -0.000000 -52.172811
RightHandThumb1 -24.326973 -0.000000 -32.862282
LeftUpLeg -33.369064 -2.899718 -7.132060
LeftLeg 122.674885 -0.000000 -0.000000
LeftFoot 5.437635 28.212797 2.800657
LeftToeBase 22.566656 -0.000000 -0.000000
RightUpLeg -30.336823 -4.292489 -2.629956
RightLeg 129.439591 -0.000000 -0.000000
RightFoot -1.872354 -25.190201 6.621786
RightToeBase 22.195340 -0.000000 -0.000000
471
root 24.917762 4.806708 -25.482579 -40.153673 103.505377 69.821932
Spine 30.695535 3.135079 -2.745911
Head 27.488554 -12.691492 1.379346
LeftShoulder 5.969922 -27.904012 -0.881520
LeftArm 8.268968 -36.222342 -69.369320
LeftForeArm -4.319928 -0.000000 141.720227
LeftHand -4.233363 -0.000000 60.396620
LeftHandThumb1 -26.253704 0.000000 33.147579
RightShoulder -5.013638 -6.102291 11.108815
RightArm 51.447033 37.500454 99.995268
RightForeArm -59.352350 -0.000000 147.682959
RightHand -10.513778 -0.000000 -52.541970
RightHandThumb1 -24.326973 -0.000000 -32.862282
LeftUpLeg -33.785349 -3.004356 -7.145550
LeftLeg 123.225826 -0.000000 -0.000000
LeftFoot 4.834559 28.592047 2.205760
LeftToeBase 22.266369 -0.000000 -0.000000
RightUpLeg -30.506933 -4.288558 -2.767040
RightLeg 130.072922 -0.000000 -0.000000
RightFoot -2.909615 -25.295849 7.300369
RightToeBase 22.038325 -0.000000 -0.000000
472
root 24.906538 4.804147 -25.494015 -39.911023 103.582556 69.862205
Spine 30.050215 2.942913 -2.872099
Head 27.070536 -12.503773 1.263369
LeftShoulder 5.902970 -28.035545 -0.713361
LeftArm 8.503950 -38.103879 -69.406900
LeftForeArm -4.628555 -0.000000 142.273037
LeftHand -4.169751 -0.000000 60.649809
LeftHandThumb1 -26.253704 0.000000 33.147579
RightShoulder -5.032325 -5.597747 11.034302
RightArm 52.314531 38.189547 100.939430
RightForeArm -59.349783 -0.000000 148.118539
RightHand -10.098028 -0.000000 -52.513370
RightHandThumb1 -24.326973 -0.000000 -32.862282
LeftUpLeg -34.261832 -3.162703 -7.152240
LeftLeg 123.768292 -0.000000 -0.000000
LeftFoot 4.641824 28.808710 2.145136
LeftToeBase 22.540147 -0.000000 -0.000000
RightUpLeg -30.664197 -4.311516 -2.911966
RightLeg 130.708786 -0.000000 -0.000000
RightFoot -4.039228 -25.463288 7.647452
RightToeBase 22.785581 -0.000000 -0.000000
473
root 24.896597 4.801795 -25.503163 -39.593937 103.671646 69.959347
Spine 29.404892 2.740337 -3.001622
Head 26.608747 -12.300947 1.215808
LeftShoulder 5.818309 -28.106359 -0.509004
LeftArm 8.961525 -39.655042 -69.552658
LeftForeArm -4.955930 -0.000000 142.939231
LeftHand -4.858261 0.000000 61.961188
LeftHandThumb1 -26.253704 0.000000 33.147579
RightShoulder -5.087958 -5.143810 10.987140
RightArm 53.199027 38.693146 101.793425
RightForeArm -59.644459 -0.000000 148.430139
RightHand -9.886513 0.000000 -52.349513
RightHandThumb1 -24.326973 -0.000000 -32.862282
LeftUpLeg -34.785163 -3.316408 -7.136092
LeftLeg 124.310348 -0.000000 -0.000000
LeftFoot 4.596609 28.912445 2.281096
LeftToeBase 23.043797 -0.000000 -0.000000
RightUpLeg -30.816253 -4.301848 -3.055347
RightLeg 131.332572 -0.000000 -0.000000
RightFoot -4.979405 -25.488688 7.848909
RightToeBase 22.992086 -0.000000 -0.000000
474
root 24.886315 4.801094 -25.517500 -39.327559 103.816814 69.978078
Spine 28.708735 2.492945 -3.176582
Head 26.209291 -12.150517 1.076138
LeftShoulder 5.699529 -27.982205 -0.400655
LeftArm 9.795060 -41.049992 -69.791911
LeftForeArm -5.475939 -0.000000 143.597716
LeftHand -5.127377 -0.000000 62.334541
LeftHandThumb1 -26.253704 0.000000 33.147579
RightShoulder -5.081535 -4.661654 10.909161
RightArm 53.971127 39.211693 102.570739
RightForeArm -59.881439 -0.000000 148.770560
RightHand -9.746112 -0.000000 -52.177787
RightHandThumb1 -24.326973 -0.000000 -32.862282
LeftUpLeg -35.314086 -3.540507 -7.188659
LeftLeg 124.873292 -0.000000 -0.000000
LeftFoot 4.522351 28.864217 2.551243
LeftToeBase 23.271522 -0.000000 -0.000000
RightUpLeg -30.951026 -4.306392 -3.294803
RightLeg 131.959694 -0.000000 -0.000000
RightFoot -5.958341 -25.443272 7.973622
RightToeBase 23.163553 -0.000000 -0.000000
475
root 24.877621 4.801427 -25.530648 -39.094139 103.925094 70.005838
Spine 28.092639 2.282578 -3.327652
Head 25.739077 -12.019975 1.025683
LeftShoulder 5.686449 -28.348180 -0.278168
LeftArm 10.014735 -42.227311 -69.751972
LeftForeArm -6.127851 -0.000000 144.395459
LeftHand -4.753521 -0.000000 62.184072
LeftHandThumb1 -26.253704 0.000000 33.147579
RightShoulder -5.076321 -4.244404 10.808563
RightArm 54.804578 39.669055 103.356252
RightForeArm -60.125808 -0.000000 149.043954
RightHand -9.636488 -0.000000 -52.086635
RightHandThumb1 -24.326973 -0.000000 -32.862282
LeftUpLeg -35.792061 -3.696571 -7.228517
LeftLeg 125.465566 -0.000000 -0.000000
LeftFoot 4.335633 28.933825 2.494673
LeftToeBase 23.252232 -0.000000 -0.000000
RightUpLeg -31.040550 -4.227691 -3.529333
RightLeg 132.567847 -0.000000 -0.000000
RightFoot -6.823812 -25.384287 8.248194
RightToeBase 23.141363 -0.000000 -0.000000
476
root 24.870476 4.799719 -25.544394 -38.901267 104.072853 69.979285
Spine 27.452995 2.040374 -3.511400
Head 25.339508 -11.837932 0.937132
LeftShoulder 5.677003 -28.263489 -0.134647
LeftArm 10.841643 -43.171975 -70.017087
LeftForeArm -6.513871 -0.000000 145.218019
LeftHand -4.317272 0.000000 61.892547
LeftHandThumb1 -26.253704 0.000000 33.147579
RightShoulder -5.032108 -3.846224 10.648666
RightArm 55.569092 40.068445 104.099069
RightForeArm -60.565084 -0.000000 149.353425
RightHand -9.742135 -0.000000 -51.957244
RightHandThumb1 -24.326973 -0.000000 -32.862282
LeftUpLeg -36.339054 -3.906145 -7.303734
LeftLeg 126.083766 -0.000000 -0.000000
LeftFoot 4.284485 28.856197 2.363229
LeftToeBase 22.885545 -0.000000 -0.000000
RightUpLeg -31.131408 -4.162870 -3.812738
RightLeg 133.154050 -0.000000 -0.000000
RightFoot -7.736279 -25.336937 8.641001
RightToeBase 23.270045 -0.000000 -0.000000
477
root 24.862315 4.800795 -25.557668 -38.861683 104.177993 69.767512
Spine 26.786683 1.876387 -3.719020
Head 24.929145 -11.781690 0.898644
LeftShoulder 5.693841 -28.384558 -0.060929
LeftArm 11.520245 -43.875590 -70.075989
LeftForeArm -7.193535 -0.000000 146.111186
LeftHand -3.890696 -0.000000 61.401899
LeftHandThumb1 -26.253704 0.000000 33.147579
RightShoulder -5.005465 -3.467233 10.495630
RightArm 56.338967 40.487016 104.848424
RightForeArm -60.973044 -0.000000 149.644618
RightHand -9.619080 -0.000000 -51.854196
RightHandThumb1 -24.326973 -0.000000 -32.862282
LeftUpLeg -36.817283 -4.006855 -7.386502
LeftLeg 126.665672 -0.000000 -0.000000
LeftFoot 3.830628 28.916925 2.089323
LeftToeBase 22.951945 -0.000000 -0.000000
RightUpLeg -31.244860 -4.014963 -4.106332
RightLeg 133.715003 -0.000000 -0.000000
RightFoot -8.544348 -25.276188 8.919384
RightToeBase 23.124020 -0.000000 -0.000000
478
root 24.858015 4.800265 -25.567222 -38.381693 104.341285 70.003161
Spine 26.135489 1.565282 -3.860023
Head 24.516544 -11.684431 0.788634
LeftShoulder 5.695186 -28.776146 -0.056450
LeftArm 11.940607 -44.350088 -69.991165
LeftForeArm -7.675150 -0.000000 146.873277
LeftHand -3.552650 -0.000000 60.682530
LeftHandThumb1 -26.253704 0.000000 33.147579
RightShoulder -4.991441 -2.874725 10.382589
RightArm 56.819131 40.830699 105.163472
RightForeArm -61.536506 -0.000000 149.975550
RightHand -9.923847 -0.000000 -51.531237
RightHandThumb1 -24.326973 -0.000000 -32.862282
LeftUpLeg -37.324853 -4.250908 -7.378776
LeftLeg 127.289769 -0.000000 -0.000000
LeftFoot 3.456244 28.683302 2.226552
LeftToeBase 23.230948 -0.000000 -0.000000
RightUpLeg -31.330053 -3.961747 -4.364723
RightLeg 134.214082 -0.000000 -0.000000
RightFoot -9.371417 -25.115360 9.291525
RightToeBase 23.244065 -0.000000 -0.000000
